<?xml version="1.0" encoding="UTF-8" standalone="no"?>
<svg width="548px" height="550px" viewBox="0 0 548 550" version="1.1" xmlns="http://www.w3.org/2000/svg" xmlns:xlink="http://www.w3.org/1999/xlink" xmlns:sketch="http://www.bohemiancoding.com/sketch/ns">
    <!-- Generator: Sketch 3.2.2 (9983) - http://www.bohemiancoding.com/sketch -->
    <title>Book2</title>
    <desc>Created with Sketch.</desc>
    <defs></defs>
    <g id="Page-1" stroke="none" stroke-width="1" fill="none" fill-rule="evenodd" sketch:type="MSPage">
        <g id="Group" sketch:type="MSLayerGroup" fill="#000000">
            <path d="M240.148437,283.498758 L240.148437,329.578015 L99.6444444,275.367124 L99.6444444,229.287866 L240.148437,283.498758 Z" id="Path" sketch:type="MSShapeGroup"></path>
            <path d="M240.148437,178.445405 L240.148437,224.524663 L99.6444444,170.313771 L99.6444444,124.234513 L240.148437,178.445405 Z" id="Path" sketch:type="MSShapeGroup"></path>
            <path d="M240.148437,389.19418 L240.148437,435.273438 L99.6444444,381.062546 L99.6444444,334.983288 L240.148437,389.19418 Z" id="Path" sketch:type="MSShapeGroup"></path>
            <path d="M442.355556,283.498758 L442.355556,329.578015 L301.851562,275.367124 L301.851562,229.287866 L442.355556,283.498758 Z" id="Path" sketch:type="MSShapeGroup" transform="translate(372.103559, 279.432941) scale(-1, 1) translate(-372.103559, -279.432941) "></path>
            <path d="M442.355556,178.445405 L442.355556,224.524663 L301.851562,170.313771 L301.851562,124.234513 L442.355556,178.445405 Z" id="Path" sketch:type="MSShapeGroup" transform="translate(372.103559, 174.379588) scale(-1, 1) translate(-372.103559, -174.379588) "></path>
            <path d="M442.355556,389.19418 L442.355556,435.273438 L301.851562,381.062546 L301.851562,334.983288 L442.355556,389.19418 Z" id="Path" sketch:type="MSShapeGroup" transform="translate(372.103559, 385.128363) scale(-1, 1) translate(-372.103559, -385.128363) "></path>
            <path d="M512,47.6238938 L512,412.225664 C512,417.628775 510.591615,419.656181 505.46753,421.580419 L278.655677,512.884153 L285.377778,529.581858 L281.006349,512.120741 C279.744001,512.436773 278.77358,512.661032 278.145124,512.7869 C278.362062,512.768487 278.881064,512.721239 279.688889,512.721239 C276.729831,512.721239 273.970779,513.273827 271.14513,514.217037 C272.37382,513.942787 273.112289,513.860619 274,513.860619 C274.887711,513.860619 275.62618,513.942787 276.254872,514.068702 C274.029221,513.273827 271.270169,512.721239 268.311111,512.721239 L268.311111,530.721239 L271.845983,513.071744 L266.157094,511.932363 L262.622222,529.581858 L269.344323,512.884153 L42.9265456,421.733711 C37.4083853,419.656181 36,417.628775 36,412.225664 L36,47.6238938 C36,42.4809923 36.9297412,40.7035315 39.1442471,39.4939177 L41.1123934,38.2470583 C44.4432545,35.8212014 46.5350841,35.5479697 49.7530604,36.890682 L267.26163,124.702208 L274,127.422551 L280.73837,124.702208 L498.053926,36.9699074 C501.464916,35.5479697 503.556746,35.8212014 506.887607,38.2470583 L508.855753,39.4939177 C511.070259,40.7035315 512,42.4809923 512,47.6238938 Z M517.484444,23.6969027 L528.081282,9.14674704 C514.724653,-0.580849193 499.370731,-2.58635577 484.384172,3.66684017 L491.315556,20.2787611 L484.577185,3.58761471 L267.26163,91.3199156 L280.73837,91.3199156 L63.4228147,3.58761471 L56.6844444,20.2787611 L63.6158284,3.66684017 C48.6292693,-2.58635577 33.2753475,-0.580849193 19.9187177,9.14674704 L30.5155556,23.6969027 L21.886864,7.89988766 C7.41387904,15.8053637 0,29.9790707 0,47.6238938 L0,412.225664 C0,432.64864 10.7277897,448.091561 29.8764191,455.282413 L36.2044444,438.431416 L29.4823433,455.129121 L255.900121,546.279564 L257.449575,546.903337 L259.087351,547.231354 L264.77624,548.370734 L266.526298,548.721239 L268.311111,548.721239 C267.4234,548.721239 266.684931,548.639072 266.056239,548.513156 C268.28189,549.308032 271.040942,549.860619 274,549.860619 C276.959058,549.860619 279.71811,549.308032 282.543759,548.364822 C281.315069,548.639072 280.5766,548.721239 279.688889,548.721239 C282.547028,548.721239 285.039868,548.221969 289.749206,547.042976 L292.099879,546.279564 L518.517657,455.129121 L511.795556,438.431416 L518.123581,455.282413 C537.27221,448.091561 548,432.64864 548,412.225664 L548,47.6238938 C548,29.9790707 540.586121,15.8053637 526.113136,7.89988766 L517.484444,23.6969027 Z" id="Path" sketch:type="MSShapeGroup"></path>
        </g>
    </g>
</svg>