<?xml version="1.0" encoding="UTF-8" standalone="no"?>
<svg width="428px" height="513px" viewBox="0 0 428 513" version="1.1" xmlns="http://www.w3.org/2000/svg" xmlns:xlink="http://www.w3.org/1999/xlink" xmlns:sketch="http://www.bohemiancoding.com/sketch/ns">
    <!-- Generator: Sketch 3.2.2 (9983) - http://www.bohemiancoding.com/sketch -->
    <title>Book1</title>
    <desc>Created with Sketch.</desc>
    <defs></defs>
    <g id="Page-1" stroke="none" stroke-width="1" fill="none" fill-rule="evenodd" sketch:type="MSPage">
        <path d="M427.75,64.75 L427.75,512.75 L64.75,512.75 C56.08329,512.75 47.916705,511.08335 40.25,507.75 C32.583295,504.41665 25.75003,499.75003 19.75,493.75 C13.74997,487.74997 9.08335,480.916705 5.75,473.25 C2.41665,465.583295 0.75,457.41671 0.75,448.75 L0.75,64.75 C0.75,56.08329 2.41665,47.75004 5.75,39.75 C9.08335,31.74996 13.74997,24.916695 19.75,19.25 C25.75003,13.583305 32.583295,9.08335 40.25,5.75 C47.916705,2.41665 56.08329,0.75 64.75,0.75 L363.75,0.75 L363.75,384.75 L80.75,384.75 C74.0833,384.75 67.916695,386.08332 62.25,388.75 C56.583305,391.41668 51.583355,394.916645 47.25,399.25 C42.916645,403.583355 39.41668,408.583305 36.75,414.25 C34.08332,419.916695 32.75,426.0833 32.75,432.75 C32.75,439.4167 34.08332,445.583305 36.75,451.25 C39.41668,456.916695 42.916645,461.916645 47.25,466.25 C51.583355,470.583355 56.583305,474.08332 62.25,476.75 C67.916695,479.41668 74.0833,480.75 80.75,480.75 L395.75,480.75 L395.75,64.75 L427.75,64.75 Z M96.75,416.75 L363.75,416.75 L363.75,448.75 L96.75,448.75 L96.75,416.75 Z" id="î±" fill="#000000" sketch:type="MSShapeGroup"></path>
    </g>
</svg>