<?xml version="1.0" encoding="UTF-8" standalone="no"?>
<svg width="1209px" height="601px" viewBox="0 0 1209 601" version="1.1" xmlns="http://www.w3.org/2000/svg" xmlns:xlink="http://www.w3.org/1999/xlink" xmlns:sketch="http://www.bohemiancoding.com/sketch/ns">
    <!-- Generator: Sketch 3.2.2 (9983) - http://www.bohemiancoding.com/sketch -->
    <title>Combi2</title>
    <desc>Created with Sketch.</desc>
    <defs></defs>
    <g id="Page-1" stroke="none" stroke-width="1" fill="none" fill-rule="evenodd" sketch:type="MSPage">
        <g id="Combi2" sketch:type="MSLayerGroup" fill="#000000">
            <path d="M1176.5,88.75 L888.5,88.75 C883.83331,88.75 879.666685,89.583325 876,91.25 C872.333315,92.916675 869.000015,95.249985 866,98.25 C862.999985,101.250015 860.666675,104.583315 859,108.25 C857.333325,111.916685 856.5,116.08331 856.5,120.75 L856.5,568.75 C856.5,573.41669 857.333325,577.583315 859,581.25 C860.666675,584.916685 862.999985,588.249985 866,591.25 C869.000015,594.250015 872.333315,596.583325 876,598.25 C879.666685,599.916675 883.83331,600.75 888.5,600.75 L1176.5,600.75 C1181.16669,600.75 1185.33331,599.916675 1189,598.25 C1192.66669,596.583325 1195.99998,594.250015 1199,591.25 C1202.00002,588.249985 1204.33333,584.916685 1206,581.25 C1207.66667,577.583315 1208.5,573.41669 1208.5,568.75 L1208.5,120.75 C1208.5,116.08331 1207.66667,111.916685 1206,108.25 C1204.33333,104.583315 1202.00002,101.250015 1199,98.25 C1195.99998,95.249985 1192.66669,92.916675 1189,91.25 C1185.33331,89.583325 1181.16669,88.75 1176.5,88.75 L1176.5,88.75 Z M1032.5,577.75 C1029.16665,577.75 1026.00002,577.08334 1023,575.75 C1019.99998,574.41666 1017.33335,572.583345 1015,570.25 C1012.66665,567.916655 1010.83334,565.250015 1009.5,562.25 C1008.16666,559.249985 1007.5,556.08335 1007.5,552.75 C1007.5,549.41665 1008.16666,546.250015 1009.5,543.25 C1010.83334,540.249985 1012.66665,537.583345 1015,535.25 C1017.33335,532.916655 1019.99998,531.08334 1023,529.75 C1026.00002,528.41666 1029.16665,527.75 1032.5,527.75 C1035.83335,527.75 1038.99998,528.41666 1042,529.75 C1045.00002,531.08334 1047.66665,532.916655 1050,535.25 C1052.33335,537.583345 1054.16666,540.249985 1055.5,543.25 C1056.83334,546.250015 1057.5,549.41665 1057.5,552.75 C1057.5,556.08335 1056.83334,559.249985 1055.5,562.25 C1054.16666,565.250015 1052.33335,567.916655 1050,570.25 C1047.66665,572.583345 1045.00002,574.41666 1042,575.75 C1038.99998,577.08334 1035.83335,577.75 1032.5,577.75 L1032.5,577.75 Z M1176.5,504.75 L888.5,504.75 L888.5,152.75 L1176.5,152.75 L1176.5,504.75 Z" id="" sketch:type="MSShapeGroup"></path>
            <g id="Group" sketch:type="MSShapeGroup">
                <path d="M209.910769,247.417098 L209.910769,287.631723 L87.0979724,240.320399 L87.0979724,200.105774 L209.910769,247.417098 Z" id="Path"></path>
                <path d="M209.910769,155.734171 L209.910769,195.948796 L87.0979724,148.637473 L87.0979724,108.422848 L209.910769,155.734171 Z" id="Path"></path>
                <path d="M209.910769,339.660375 L209.910769,379.875 L87.0979724,332.563676 L87.0979724,292.349051 L209.910769,339.660375 Z" id="Path"></path>
                <path d="M386.657502,247.417098 L386.657502,287.631723 L263.844705,240.320399 L263.844705,200.105774 L386.657502,247.417098 Z" id="Path" transform="translate(325.251104, 243.868748) scale(-1, 1) translate(-325.251104, -243.868748) "></path>
                <path d="M386.657502,155.734171 L386.657502,195.948796 L263.844705,148.637473 L263.844705,108.422848 L386.657502,155.734171 Z" id="Path" transform="translate(325.251104, 152.185822) scale(-1, 1) translate(-325.251104, -152.185822) "></path>
                <path d="M386.657502,339.660375 L386.657502,379.875 L263.844705,332.563676 L263.844705,292.349051 L386.657502,339.660375 Z" id="Path" transform="translate(325.251104, 336.112026) scale(-1, 1) translate(-325.251104, -336.112026) "></path>
                <path d="M447.532847,41.562671 L447.532847,359.760579 C447.532847,364.476022 446.301795,366.245394 441.822896,367.924729 L243.569469,447.607988 L249.445174,462.180531 L245.624163,446.941738 C244.52076,447.217547 243.672527,447.413264 243.123202,447.523113 C243.312824,447.507043 243.766477,447.465809 244.472587,447.465809 C241.886111,447.465809 239.474458,447.948067 237.004593,448.771232 C238.078577,448.531887 238.724063,448.460177 239.5,448.460177 C240.275937,448.460177 240.921423,448.531887 241.470956,448.641777 C239.525542,447.948067 237.113889,447.465809 234.527413,447.465809 L234.527413,463.174899 L237.6172,447.771704 L232.644613,446.777335 L229.554826,462.180531 L235.430531,447.607988 L37.5215609,368.058511 C32.6982054,366.245394 31.4671533,364.476022 31.4671533,359.760579 L31.4671533,41.562671 C31.4671533,37.0743206 32.2798286,35.523082 34.2155006,34.467419 L35.9358329,33.3792509 C38.8472972,31.2621394 40.6757396,31.0236827 43.4885328,32.1955043 L233.610074,108.831018 L239.5,111.205135 L245.389926,108.831018 L435.342756,32.2646465 C438.32426,31.0236827 440.152703,31.2621394 443.064167,33.3792509 L444.784499,34.467419 C446.720171,35.523082 447.532847,37.0743206 447.532847,41.562671 Z M452.326732,20.6809332 L461.589296,7.9826156 C449.914432,-0.506922932 436.493759,-2.25718322 423.394194,3.20015142 L429.45283,17.6978278 L423.562905,3.1310092 L233.610074,79.6973809 L245.389926,79.6973809 L55.4370953,3.1310092 L49.5471695,17.6978278 L55.6058063,3.20015142 C42.5062409,-2.25718322 29.0855683,-0.506922932 17.410704,7.9826156 L26.6732685,20.6809332 L19.1310363,6.89444741 C6.48037968,13.7937719 0,26.1635526 0,41.562671 L0,359.760579 C0,377.584268 9.37702783,391.061726 26.1146072,397.337378 L31.6458556,382.631054 L25.7701504,397.203597 L223.67912,476.753074 L225.033479,477.297458 L226.465038,477.583727 L231.437625,478.578095 L232.96733,478.88399 L234.527413,478.88399 C233.751476,478.88399 233.105989,478.812281 232.556457,478.702391 C234.501871,479.3961 236.913524,479.878359 239.5,479.878359 C242.086476,479.878359 244.498129,479.3961 246.967994,478.572935 C245.894011,478.812281 245.248524,478.88399 244.472587,478.88399 C246.970851,478.88399 249.149812,478.448263 253.266186,477.419324 L255.32088,476.753074 L453.22985,397.203597 L447.354144,382.631054 L452.885393,397.337378 C469.622972,391.061726 479,377.584268 479,359.760579 L479,41.562671 C479,26.1635526 472.51962,13.7937719 459.868964,6.89444741 L452.326732,20.6809332 Z" id="Path"></path>
            </g>
            <path d="M774.666667,387.333333 L689.333333,387.333333 L689.333333,472.666667 L646.666667,472.666667 L646.666667,387.333333 L561.333333,387.333333 L561.333333,344.666667 L646.666667,344.666667 L646.666667,259.333333 L689.333333,259.333333 L689.333333,344.666667 L774.666667,344.666667 L774.666667,387.333333 L774.666667,387.333333 Z" id="Path" sketch:type="MSShapeGroup"></path>
        </g>
    </g>
</svg>