<?xml version="1.0" encoding="UTF-8" standalone="no"?>
<svg width="1126px" height="671px" viewBox="0 0 1126 671" version="1.1" xmlns="http://www.w3.org/2000/svg" xmlns:xlink="http://www.w3.org/1999/xlink" xmlns:sketch="http://www.bohemiancoding.com/sketch/ns">
    <!-- Generator: Sketch 3.2.2 (9983) - http://www.bohemiancoding.com/sketch -->
    <title>Combi1</title>
    <desc>Created with Sketch.</desc>
    <defs></defs>
    <g id="Page-1" stroke="none" stroke-width="1" fill="none" fill-rule="evenodd" sketch:type="MSPage">
        <g id="-+--+-Path" sketch:type="MSLayerGroup" fill="#000000">
            <path d="M1093.5,158.75 L805.5,158.75 C800.83331,158.75 796.666685,159.583325 793,161.25 C789.333315,162.916675 786.000015,165.249985 783,168.25 C779.999985,171.250015 777.666675,174.583315 776,178.25 C774.333325,181.916685 773.5,186.08331 773.5,190.75 L773.5,638.75 C773.5,643.41669 774.333325,647.583315 776,651.25 C777.666675,654.916685 779.999985,658.249985 783,661.25 C786.000015,664.250015 789.333315,666.583325 793,668.25 C796.666685,669.916675 800.83331,670.75 805.5,670.75 L1093.5,670.75 C1098.16669,670.75 1102.33331,669.916675 1106,668.25 C1109.66669,666.583325 1112.99998,664.250015 1116,661.25 C1119.00002,658.249985 1121.33333,654.916685 1123,651.25 C1124.66667,647.583315 1125.5,643.41669 1125.5,638.75 L1125.5,190.75 C1125.5,186.08331 1124.66667,181.916685 1123,178.25 C1121.33333,174.583315 1119.00002,171.250015 1116,168.25 C1112.99998,165.249985 1109.66669,162.916675 1106,161.25 C1102.33331,159.583325 1098.16669,158.75 1093.5,158.75 L1093.5,158.75 Z M949.5,647.75 C946.16665,647.75 943.000015,647.08334 940,645.75 C936.999985,644.41666 934.333345,642.583345 932,640.25 C929.666655,637.916655 927.83334,635.250015 926.5,632.25 C925.16666,629.249985 924.5,626.08335 924.5,622.75 C924.5,619.41665 925.16666,616.250015 926.5,613.25 C927.83334,610.249985 929.666655,607.583345 932,605.25 C934.333345,602.916655 936.999985,601.08334 940,599.75 C943.000015,598.41666 946.16665,597.75 949.5,597.75 C952.83335,597.75 955.999985,598.41666 959,599.75 C962.000015,601.08334 964.666655,602.916655 967,605.25 C969.333345,607.583345 971.16666,610.249985 972.5,613.25 C973.83334,616.250015 974.5,619.41665 974.5,622.75 C974.5,626.08335 973.83334,629.249985 972.5,632.25 C971.16666,635.250015 969.333345,637.916655 967,640.25 C964.666655,642.583345 962.000015,644.41666 959,645.75 C955.999985,647.08334 952.83335,647.75 949.5,647.75 L949.5,647.75 Z M1093.5,574.75 L805.5,574.75 L805.5,222.75 L1093.5,222.75 L1093.5,574.75 Z" id="" sketch:type="MSShapeGroup"></path>
            <path d="M427.75,64.75 L427.75,512.75 L64.75,512.75 C56.08329,512.75 47.916705,511.08335 40.25,507.75 C32.583295,504.41665 25.75003,499.75003 19.75,493.75 C13.74997,487.74997 9.08335,480.916705 5.75,473.25 C2.41665,465.583295 0.75,457.41671 0.75,448.75 L0.75,64.75 C0.75,56.08329 2.41665,47.75004 5.75,39.75 C9.08335,31.74996 13.74997,24.916695 19.75,19.25 C25.75003,13.583305 32.583295,9.08335 40.25,5.75 C47.916705,2.41665 56.08329,0.75 64.75,0.75 L363.75,0.75 L363.75,384.75 L80.75,384.75 C74.0833,384.75 67.916695,386.08332 62.25,388.75 C56.583305,391.41668 51.583355,394.916645 47.25,399.25 C42.916645,403.583355 39.41668,408.583305 36.75,414.25 C34.08332,419.916695 32.75,426.0833 32.75,432.75 C32.75,439.4167 34.08332,445.583305 36.75,451.25 C39.41668,456.916695 42.916645,461.916645 47.25,466.25 C51.583355,470.583355 56.583305,474.08332 62.25,476.75 C67.916695,479.41668 74.0833,480.75 80.75,480.75 L395.75,480.75 L395.75,64.75 L427.75,64.75 Z M96.75,416.75 L363.75,416.75 L363.75,448.75 L96.75,448.75 L96.75,416.75 Z" id="" sketch:type="MSShapeGroup"></path>
            <path d="M702.666667,457.333333 L617.333333,457.333333 L617.333333,542.666667 L574.666667,542.666667 L574.666667,457.333333 L489.333333,457.333333 L489.333333,414.666667 L574.666667,414.666667 L574.666667,329.333333 L617.333333,329.333333 L617.333333,414.666667 L702.666667,414.666667 L702.666667,457.333333 L702.666667,457.333333 Z" id="Path" sketch:type="MSShapeGroup"></path>
        </g>
    </g>
</svg>