<?xml version="1.0" encoding="UTF-8" standalone="no"?>
<svg width="353px" height="513px" viewBox="0 0 353 513" version="1.1" xmlns="http://www.w3.org/2000/svg" xmlns:xlink="http://www.w3.org/1999/xlink" xmlns:sketch="http://www.bohemiancoding.com/sketch/ns">
    <!-- Generator: Sketch 3.2.2 (9983) - http://www.bohemiancoding.com/sketch -->
    <title>Liseuse</title>
    <desc>Created with Sketch.</desc>
    <defs></defs>
    <g id="Page-1" stroke="none" stroke-width="1" fill="none" fill-rule="evenodd" sketch:type="MSPage">
        <path d="M320.5,0.75 L32.5,0.75 C27.83331,0.75 23.666685,1.583325 20,3.25 C16.333315,4.916675 13.000015,7.249985 10,10.25 C6.999985,13.250015 4.666675,16.583315 3,20.25 C1.333325,23.916685 0.5,28.08331 0.5,32.75 L0.5,480.75 C0.5,485.41669 1.333325,489.583315 3,493.25 C4.666675,496.916685 6.999985,500.249985 10,503.25 C13.000015,506.250015 16.333315,508.583325 20,510.25 C23.666685,511.916675 27.83331,512.75 32.5,512.75 L320.5,512.75 C325.16669,512.75 329.333315,511.916675 333,510.25 C336.666685,508.583325 339.999985,506.250015 343,503.25 C346.000015,500.249985 348.333325,496.916685 350,493.25 C351.666675,489.583315 352.5,485.41669 352.5,480.75 L352.5,32.75 C352.5,28.08331 351.666675,23.916685 350,20.25 C348.333325,16.583315 346.000015,13.250015 343,10.25 C339.999985,7.249985 336.666685,4.916675 333,3.25 C329.333315,1.583325 325.16669,0.75 320.5,0.75 L320.5,0.75 Z M176.5,489.75 C173.16665,489.75 170.000015,489.08334 167,487.75 C163.999985,486.41666 161.333345,484.583345 159,482.25 C156.666655,479.916655 154.83334,477.250015 153.5,474.25 C152.16666,471.249985 151.5,468.08335 151.5,464.75 C151.5,461.41665 152.16666,458.250015 153.5,455.25 C154.83334,452.249985 156.666655,449.583345 159,447.25 C161.333345,444.916655 163.999985,443.08334 167,441.75 C170.000015,440.41666 173.16665,439.75 176.5,439.75 C179.83335,439.75 182.999985,440.41666 186,441.75 C189.000015,443.08334 191.666655,444.916655 194,447.25 C196.333345,449.583345 198.16666,452.249985 199.5,455.25 C200.83334,458.250015 201.5,461.41665 201.5,464.75 C201.5,468.08335 200.83334,471.249985 199.5,474.25 C198.16666,477.250015 196.333345,479.916655 194,482.25 C191.666655,484.583345 189.000015,486.41666 186,487.75 C182.999985,489.08334 179.83335,489.75 176.5,489.75 L176.5,489.75 Z M320.5,416.75 L32.5,416.75 L32.5,64.75 L320.5,64.75 L320.5,416.75 Z" id="" fill="#000000" sketch:type="MSShapeGroup"></path>
    </g>
</svg>